HIERARCHY
ROOT hip
{
  OFFSET 0 0 0
  CHANNELS 6 Xposition Yposition Zposition Zrotation Yrotation Xrotation
  JOINT abdomen
  {
    OFFSET 0 20.6881 -0.73152
    CHANNELS 3 Zrotation Xrotation Yrotation
    JOINT chest
    {
      OFFSET 0 11.7043 -0.48768
      CHANNELS 3 Zrotation Xrotation Yrotation
      JOINT neck
      {
        OFFSET 0 22.1894 -2.19456
        CHANNELS 3 Zrotation Xrotation Yrotation
        JOINT head
        {
          OFFSET -0.24384 7.07133 1.2192
          CHANNELS 3 Zrotation Xrotation Yrotation
          JOINT leftEye
          {
            OFFSET 4.14528 8.04674 8.04672
            CHANNELS 3 Zrotation Xrotation Yrotation
            End Site
            {
              OFFSET 1 0 0
            }
          }
          JOINT rightEye
          {
            OFFSET -3.6576 8.04674 8.04672
            CHANNELS 3 Zrotation Xrotation Yrotation
            End Site
            {
              OFFSET 1 0 0
            }
          }
        }
      }
      JOINT rCollar
      {
        OFFSET -2.68224 19.2634 -4.8768
        CHANNELS 3 Zrotation Xrotation Yrotation
        JOINT rShldr
        {
          OFFSET -8.77824 -1.95073 1.46304
          CHANNELS 3 Zrotation Xrotation Yrotation
          JOINT rForeArm
          {
            OFFSET -28.1742 -1.7115 0.48768
            CHANNELS 3 Zrotation Xrotation Yrotation
            JOINT rHand
            {
              OFFSET -22.5879 0.773209 7.07136
              CHANNELS 3 Zrotation Xrotation Yrotation
              JOINT rThumb1
              {
                OFFSET -1.2192 -0.487915 3.41376
                CHANNELS 3 Zrotation Xrotation Yrotation
                JOINT rThumb2
                {
                  OFFSET -3.37035 -0.52449 3.41376
                  CHANNELS 3 Zrotation Xrotation Yrotation
                  End Site
                  {
                    OFFSET -1.78271 -1.18214 1.43049
                  }
                }
              }
              JOINT rIndex1
              {
                OFFSET -7.75947 0.938293 5.60832
                CHANNELS 3 Zrotation Xrotation Yrotation
                JOINT rIndex2
                {
                  OFFSET -2.54057 -0.884171 1.56538
                  CHANNELS 3 Zrotation Xrotation Yrotation
                  End Site
                  {
                    OFFSET -1.62519 -0.234802 1.16502
                  }
                }
              }
              JOINT rMid1
              {
                OFFSET -8.24714 1.18213 3.41376
                CHANNELS 3 Zrotation Xrotation Yrotation
                JOINT rMid2
                {
                  OFFSET -3.10165 -0.590103 1.0647
                  CHANNELS 3 Zrotation Xrotation Yrotation
                  End Site
                  {
                    OFFSET -2.48547 -0.328903 0.83742
                  }
                }
              }
              JOINT rRing1
              {
                OFFSET -8.82822 0.546677 1.51678
                CHANNELS 3 Zrotation Xrotation Yrotation
                JOINT rRing2
                {
                  OFFSET -2.60934 -0.819778 -0.0198488
                  CHANNELS 3 Zrotation Xrotation Yrotation
                  End Site
                  {
                    OFFSET -2.33842 -0.294052 0.168128
                  }
                }
              }
              JOINT rPinky1
              {
                OFFSET -8.27202 -0.0477905 -0.4584
                CHANNELS 3 Zrotation Xrotation Yrotation
                JOINT rPinky2
                {
                  OFFSET -1.82734 -0.647385 -0.700984
                  CHANNELS 3 Zrotation Xrotation Yrotation
                  End Site
                  {
                    OFFSET -1.69225 -0.51767 -0.607171
                  }
                }
              }
            }
          }
        }
      }
      JOINT lCollar
      {
        OFFSET 2.68224 19.2634 -4.8768
        CHANNELS 3 Zrotation Xrotation Yrotation
        JOINT lShldr
        {
          OFFSET 8.77824 -1.95073 1.46304
          CHANNELS 3 Zrotation Xrotation Yrotation
          JOINT lForeArm
          {
            OFFSET 28.1742 -1.7115 0.48768
            CHANNELS 3 Zrotation Xrotation Yrotation
            JOINT lHand
            {
              OFFSET 22.5879 0.773209 7.07136
              CHANNELS 3 Zrotation Xrotation Yrotation
              JOINT lThumb1
              {
                OFFSET 1.2192 -0.487915 3.41376
                CHANNELS 3 Zrotation Xrotation Yrotation
                JOINT lThumb2
                {
                  OFFSET 3.37035 -0.52449 3.41376
                  CHANNELS 3 Zrotation Xrotation Yrotation
                  End Site
                  {
                    OFFSET 1.78271 -1.18214 1.43049
                  }
                }
              }
              JOINT lIndex1
              {
                OFFSET 7.75947 0.938293 5.60832
                CHANNELS 3 Zrotation Xrotation Yrotation
                JOINT lIndex2
                {
                  OFFSET 2.54057 -0.884171 1.56538
                  CHANNELS 3 Zrotation Xrotation Yrotation
                  End Site
                  {
                    OFFSET 1.62519 -0.234802 1.16502
                  }
                }
              }
              JOINT lMid1
              {
                OFFSET 8.24714 1.18213 3.41376
                CHANNELS 3 Zrotation Xrotation Yrotation
                JOINT lMid2
                {
                  OFFSET 3.10165 -0.590103 1.0647
                  CHANNELS 3 Zrotation Xrotation Yrotation
                  End Site
                  {
                    OFFSET 2.48547 -0.328903 0.83742
                  }
                }
              }
              JOINT lRing1
              {
                OFFSET 8.82822 0.546677 1.51678
                CHANNELS 3 Zrotation Xrotation Yrotation
                JOINT lRing2
                {
                  OFFSET 2.60934 -0.819778 -0.0198488
                  CHANNELS 3 Zrotation Xrotation Yrotation
                  End Site
                  {
                    OFFSET 2.33842 -0.294052 0.168128
                  }
                }
              }
              JOINT lPinky1
              {
                OFFSET 8.27202 -0.0477905 -0.4584
                CHANNELS 3 Zrotation Xrotation Yrotation
                JOINT lPinky2
                {
                  OFFSET 1.82734 -0.647385 -0.700984
                  CHANNELS 3 Zrotation Xrotation Yrotation
                  End Site
                  {
                    OFFSET 1.69225 -0.51767 -0.607171
                  }
                }
              }
            }
          }
        }
      }
    }
  }
  JOINT rButtock
  {
    OFFSET -8.77824 4.35084 1.2192
    CHANNELS 3 Zrotation Xrotation Yrotation
    JOINT rThigh
    {
      OFFSET 0 -1.70687 -2.19456
      CHANNELS 3 Zrotation Xrotation Yrotation
      JOINT rShin
      {
        OFFSET 0 -36.8199 0.73152
        CHANNELS 3 Zrotation Xrotation Yrotation
        JOINT rFoot
        {
          OFFSET 0.73152 -45.1104 -5.12064
          CHANNELS 3 Zrotation Xrotation Yrotation
          End Site
          {
            OFFSET -1.1221 -3.69964 12.103
          }
        }
      }
    }
  }
  JOINT lButtock
  {
    OFFSET 8.77824 4.35084 1.2192
    CHANNELS 3 Zrotation Xrotation Yrotation
    JOINT lThigh
    {
      OFFSET 0 -1.70687 -2.19456
      CHANNELS 3 Zrotation Xrotation Yrotation
      JOINT lShin
      {
        OFFSET 0 -36.8199 0.73152
        CHANNELS 3 Zrotation Xrotation Yrotation
        JOINT lFoot
        {
          OFFSET -0.73152 -45.1104 -5.12064
          CHANNELS 3 Zrotation Xrotation Yrotation
          End Site
          {
            OFFSET 1.1221 -3.69964 12.103
          }
        }
      }
    }
  }
}
MOTION
Frames:	4
Frame Time:	0.00833333
59.353 55.1538 -39.1729 4.7986 3.5288 1.7215 -5.46841 21.463 3.83819 5.26783 1.65351 0.330929 -1.7212 5.63302 0.891405 1.57973 12.1347 1.9481 -0.0 0.0 0.0 -0.0 0.0 0.0 -1.03305e-13 3.18948e-15 8.19987e-14 -17.8739 5.82522 57.4411 -22.9187 -17.202 46.3507 -0.0124884 3.18893 0.448642 1.46719e-09 5.33538e-09 3.02016e-10 2.53912e-09 9.23026e-09 5.14792e-10 1.46719e-09 5.33538e-09 3.02016e-10 7.73091 5.47488 0.417314 1.46718e-09 5.33538e-09 3.02022e-10 2.90554 0.965183 0.102902 1.46719e-09 5.33538e-09 3.02013e-10 10.2786 0.731801 0.0259123 1.46718e-09 5.33538e-09 3.02019e-10 2.22167 -0.733487 -0.20892 -1.03438e-13 3.17124e-15 8.17502e-14 15.9915 1.79092 -64.271 21.2919 -14.729 -41.9168 0.492702 19.5458 -2.85993 -4.47918e-10 4.09496e-09 -1.25859e-09 -7.9455e-10 7.1627e-09 -2.1691e-09 -4.47919e-10 4.09497e-09 -1.25858e-09 -7.73091 5.47488 -0.417314 -4.47916e-10 4.09497e-09 -1.25859e-09 -2.90554 0.965183 -0.102902 -4.47923e-10 4.09497e-09 -1.25859e-09 -10.2786 0.731801 -0.0259123 -4.47917e-10 4.09497e-09 -1.2586e-09 -2.22167 -0.733487 0.20892 -2.03217e-16 0.0 -3.88251e-19 -16.4576 -51.09 -11.0381 0.0408122 9.36844 0.457147 0.337633 -1.27797 -0.0553525 2.03217e-16 0.0 3.88251e-19 2.60582 -48.2481 -1.19865 0.0220414 -2.0767 0.1895 -0.175583 4.08071 -0.0398531
58.6722 55.0531 -38.9508 1.7943 3.1892 0.9439 -5.32859 21.4972 3.84768 5.25404 1.65912 0.339869 -1.72366 5.69326 0.842187 1.59119 11.9597 1.85228 -0.0 0.0 0.0 -0.0 0.0 0.0 -8.81692e-14 1.98859e-14 8.59915e-14 -17.7963 5.79345 57.4426 -22.9232 -17.2095 46.3638 -0.0131885 3.28351 0.461974 9.99176e-10 3.42936e-09 8.97485e-11 1.72921e-09 5.93277e-09 1.49547e-10 9.99174e-10 3.42936e-09 8.97482e-11 7.73091 5.47488 0.417314 9.99173e-10 3.42936e-09 8.97538e-11 2.90554 0.965183 0.102902 9.99178e-10 3.42936e-09 8.97471e-11 10.2786 0.731801 0.0259123 9.99171e-10 3.42936e-09 8.97543e-11 2.22167 -0.733487 -0.20892 -8.83057e-14 1.98707e-14 8.57585e-14 16.032 1.79642 -64.282 21.3039 -14.7458 -41.9479 0.492756 19.5465 -2.86005 -1.96712e-10 2.26004e-09 -7.89126e-10 -3.52724e-10 3.96212e-09 -1.36194e-09 -1.96712e-10 2.26005e-09 -7.89119e-10 -7.73091 5.47488 -0.417314 -1.9671e-10 2.26005e-09 -7.89123e-10 -2.90554 0.965183 -0.102902 -1.96715e-10 2.26005e-09 -7.89121e-10 -10.2786 0.731801 -0.0259123 -1.96712e-10 2.26005e-09 -7.89132e-10 -2.22167 -0.733487 0.20892 -2.03217e-16 0.0 -3.88251e-19 -16.2182 -51.0991 -10.9395 0.0409835 9.37402 0.458731 0.337642 -1.28296 -0.0554202 2.03217e-16 0.0 3.88251e-19 2.83068 -48.2717 -1.10719 0.0219695 -2.07671 0.188864 -0.175835 4.08233 -0.0398393
58.8088 55.0726 -39.0126 2.837 3.0581 1.3162 -4.82617 21.6113 3.87751 5.18959 1.68412 0.37195 -1.70015 5.74705 0.792402 1.56158 11.763 1.7551 -0.0 0.0 0.0 -0.0 0.0 0.0 -5.13098e-14 5.16874e-14 9.03725e-14 -17.7359 5.74976 57.437 -22.9307 -17.2217 46.3851 -0.0144708 3.44221 0.484354 1.01509e-11 -5.36071e-10 -3.45594e-10 1.78221e-11 -9.26898e-10 -5.99484e-10 1.01499e-11 -5.36071e-10 -3.45595e-10 7.73091 5.47488 0.417314 1.01488e-11 -5.36068e-10 -3.45591e-10 2.90554 0.965183 0.102902 1.01524e-11 -5.36068e-10 -3.45592e-10 10.2786 0.731801 0.0259123 1.0146e-11 -5.36067e-10 -3.45584e-10 2.22167 -0.733487 -0.20892 -5.14434e-14 5.16803e-14 9.01737e-14 16.0673 1.79203 -64.2603 21.3157 -14.7623 -41.9784 0.495762 19.6033 -2.86905 3.15691e-10 -1.51104e-09 1.78142e-10 5.48469e-10 -2.61484e-09 3.01038e-10 3.15693e-10 -1.51103e-09 1.78149e-10 -7.73091 5.47488 -0.417314 3.15694e-10 -1.51103e-09 1.78144e-10 -2.90554 0.965183 -0.102902 3.1569e-10 -1.51103e-09 1.78145e-10 -10.2786 0.731801 -0.0259123 3.15691e-10 -1.51103e-09 1.78137e-10 -2.22167 -0.733487 0.20892 -2.03217e-16 0.0 -3.88251e-19 -15.3174 -51.0406 -10.5468 0.0416438 9.39631 0.464801 0.338663 -1.30236 -0.0557831 2.03217e-16 0.0 3.88251e-19 3.66445 -48.2679 -0.757284 0.0216968 -2.07675 0.186453 -0.177373 4.08852 -0.0397009
58.9265 55.061 -39.0305 3.2441 3.2461 1.2984 -4.24735 21.7502 3.91589 5.11452 1.71385 0.410039 -1.67138 5.79819 0.744757 1.53145 11.5551 1.66148 -0.0 0.0 0.0 -0.0 0.0 0.0 -1.35116e-14 8.3091e-14 9.7611e-14 -17.6936 5.70219 57.4311 -22.9385 -17.2346 46.4077 -0.0158491 3.59738 0.506247 -9.57305e-10 -4.40227e-09 -7.70789e-10 -1.65617e-09 -7.61467e-09 -1.33111e-09 -9.57304e-10 -4.40227e-09 -7.70791e-10 7.73091 5.47488 0.417314 -9.57306e-10 -4.40227e-09 -7.70788e-10 2.90554 0.965183 0.102902 -9.57304e-10 -4.40227e-09 -7.70784e-10 10.2786 0.731801 0.0259123 -9.5731e-10 -4.40227e-09 -7.70775e-10 2.22167 -0.733487 -0.20892 -1.36424e-14 8.30927e-14 9.74464e-14 16.1002 1.78335 -64.2292 21.3279 -14.7795 -42.01 0.499814 19.6794 -2.88113 7.95718e-10 -5.1327e-09 1.12487e-09 1.3933e-09 -8.9324e-09 1.92895e-09 7.95721e-10 -5.13269e-09 1.12488e-09 -7.73091 5.47488 -0.417314 7.95722e-10 -5.13269e-09 1.12487e-09 -2.90554 0.965183 -0.102902 7.9572e-10 -5.13269e-09 1.12487e-09 -10.2786 0.731801 -0.0259123 7.95719e-10 -5.13269e-09 1.12487e-09 -2.22167 -0.733487 0.20892 -2.03217e-16 0.0 -3.88251e-19 -14.2636 -50.956 -10.0808 0.0424091 9.4225 0.471887 0.339883 -1.32505 -0.0562102 2.03217e-16 0.0 3.88251e-19 4.63593 -48.2459 -0.347532 0.0213826 -2.0768 0.183674 -0.179182 4.09572 -0.0395371
